<?xml version="1.0" encoding="UTF-8" standalone="no"?>
<!-- Created with Inkscape (http://www.inkscape.org/) -->

<svg
   width="151.35576mm"
   height="151.35576mm"
   viewBox="0 0 151.35576 151.35576"
   version="1.1"
   id="svg5"
   sodipodi:docname="rocket.svg"
   inkscape:export-filename="D:\Productivity\Projects\terp-rockets-ground-station\assets\logo3.png"
   inkscape:export-xdpi="171.84413"
   inkscape:export-ydpi="171.84413"
   inkscape:version="1.2.1 (9c6d41e410, 2022-07-14)"
   xmlns:inkscape="http://www.inkscape.org/namespaces/inkscape"
   xmlns:sodipodi="http://sodipodi.sourceforge.net/DTD/sodipodi-0.dtd"
   xmlns="http://www.w3.org/2000/svg"
   xmlns:svg="http://www.w3.org/2000/svg">
  <sodipodi:namedview
     id="namedview7"
     pagecolor="#ffffff"
     bordercolor="#666666"
     borderopacity="1.0"
     inkscape:pageshadow="2"
     inkscape:pageopacity="0.0"
     inkscape:pagecheckerboard="0"
     inkscape:document-units="mm"
     showgrid="false"
     inkscape:zoom="1"
     inkscape:cx="305"
     inkscape:cy="216.5"
     inkscape:window-width="1920"
     inkscape:window-height="1111"
     inkscape:window-x="-9"
     inkscape:window-y="-9"
     inkscape:window-maximized="1"
     inkscape:current-layer="layer1"
     inkscape:showpageshadow="2"
     inkscape:deskcolor="#d1d1d1" />
  <defs
     id="defs2">
    <inkscape:path-effect
       effect="powerclip"
       id="path-effect1033"
       is_visible="true"
       lpeversion="1"
       inverse="true"
       flatten="false"
       hide_clip="false"
       message="Use fill-rule evenodd on &lt;b&gt;fill and stroke&lt;/b&gt; dialog if no flatten result after convert clip to paths." />
    <inkscape:path-effect
       effect="powerclip"
       id="path-effect3253"
       is_visible="true"
       lpeversion="1"
       inverse="true"
       flatten="false"
       hide_clip="false"
       message="Use fill-rule evenodd on &lt;b&gt;fill and stroke&lt;/b&gt; dialog if no flatten result after convert clip to paths." />
    <inkscape:path-effect
       effect="powerclip"
       id="path-effect1960"
       is_visible="true"
       lpeversion="1"
       inverse="true"
       flatten="false"
       hide_clip="false"
       message="Use fill-rule evenodd on &lt;b&gt;fill and stroke&lt;/b&gt; dialog if no flatten result after convert clip to paths." />
    <inkscape:path-effect
       effect="powerclip"
       id="path-effect1801"
       is_visible="true"
       lpeversion="1"
       inverse="true"
       flatten="false"
       hide_clip="false"
       message="Use fill-rule evenodd on &lt;b&gt;fill and stroke&lt;/b&gt; dialog if no flatten result after convert clip to paths." />
    <inkscape:path-effect
       effect="powerclip"
       id="path-effect1791"
       is_visible="true"
       lpeversion="1"
       inverse="true"
       flatten="false"
       hide_clip="false"
       message="Use fill-rule evenodd on &lt;b&gt;fill and stroke&lt;/b&gt; dialog if no flatten result after convert clip to paths." />
    <inkscape:path-effect
       effect="powerclip"
       id="path-effect1446"
       is_visible="true"
       lpeversion="1"
       inverse="true"
       flatten="false"
       hide_clip="false"
       message="Use fill-rule evenodd on &lt;b&gt;fill and stroke&lt;/b&gt; dialog if no flatten result after convert clip to paths." />
    <inkscape:path-effect
       effect="powerclip"
       id="path-effect1436"
       is_visible="true"
       lpeversion="1"
       inverse="true"
       flatten="false"
       hide_clip="false"
       message="Use fill-rule evenodd on &lt;b&gt;fill and stroke&lt;/b&gt; dialog if no flatten result after convert clip to paths." />
    <inkscape:path-effect
       effect="powerclip"
       id="path-effect1321"
       is_visible="true"
       lpeversion="1"
       inverse="true"
       flatten="false"
       hide_clip="false"
       message="Use fill-rule evenodd on &lt;b&gt;fill and stroke&lt;/b&gt; dialog if no flatten result after convert clip to paths." />
    <inkscape:path-effect
       effect="powerclip"
       id="path-effect1303"
       is_visible="true"
       lpeversion="1"
       inverse="true"
       flatten="false"
       hide_clip="false"
       message="Use fill-rule evenodd on &lt;b&gt;fill and stroke&lt;/b&gt; dialog if no flatten result after convert clip to paths." />
    <inkscape:path-effect
       effect="powerclip"
       id="path-effect1293"
       is_visible="true"
       lpeversion="1"
       inverse="true"
       flatten="false"
       hide_clip="false"
       message="Use fill-rule evenodd on &lt;b&gt;fill and stroke&lt;/b&gt; dialog if no flatten result after convert clip to paths." />
    <inkscape:path-effect
       effect="powerclip"
       id="path-effect1088"
       is_visible="true"
       lpeversion="1"
       inverse="true"
       flatten="false"
       hide_clip="false"
       message="Use fill-rule evenodd on &lt;b&gt;fill and stroke&lt;/b&gt; dialog if no flatten result after convert clip to paths." />
    <inkscape:path-effect
       effect="powerclip"
       id="path-effect1080"
       is_visible="true"
       lpeversion="1"
       inverse="true"
       flatten="false"
       hide_clip="false"
       message="Use fill-rule evenodd on &lt;b&gt;fill and stroke&lt;/b&gt; dialog if no flatten result after convert clip to paths." />
    <inkscape:path-effect
       effect="powerclip"
       id="path-effect1068"
       is_visible="true"
       lpeversion="1"
       inverse="true"
       flatten="false"
       hide_clip="false"
       message="Use fill-rule evenodd on &lt;b&gt;fill and stroke&lt;/b&gt; dialog if no flatten result after convert clip to paths." />
    <inkscape:path-effect
       effect="powerclip"
       id="path-effect1058"
       is_visible="true"
       lpeversion="1"
       inverse="true"
       flatten="false"
       hide_clip="false"
       message="Use fill-rule evenodd on &lt;b&gt;fill and stroke&lt;/b&gt; dialog if no flatten result after convert clip to paths." />
    <inkscape:path-effect
       effect="powerclip"
       id="path-effect1048"
       is_visible="true"
       lpeversion="1"
       inverse="true"
       flatten="false"
       hide_clip="false"
       message="Use fill-rule evenodd on &lt;b&gt;fill and stroke&lt;/b&gt; dialog if no flatten result after convert clip to paths." />
    <inkscape:path-effect
       effect="powerclip"
       id="path-effect1024"
       is_visible="true"
       lpeversion="1"
       inverse="true"
       flatten="false"
       hide_clip="false"
       message="Use fill-rule evenodd on &lt;b&gt;fill and stroke&lt;/b&gt; dialog if no flatten result after convert clip to paths." />
    <inkscape:path-effect
       effect="powerclip"
       id="path-effect913"
       is_visible="true"
       lpeversion="1"
       inverse="true"
       flatten="false"
       hide_clip="false"
       message="Use fill-rule evenodd on &lt;b&gt;fill and stroke&lt;/b&gt; dialog if no flatten result after convert clip to paths." />
    <inkscape:path-effect
       effect="powerclip"
       id="path-effect880"
       is_visible="true"
       lpeversion="1"
       inverse="true"
       flatten="false"
       hide_clip="false"
       message="Use fill-rule evenodd on &lt;b&gt;fill and stroke&lt;/b&gt; dialog if no flatten result after convert clip to paths." />
    <inkscape:path-effect
       effect="powerclip"
       id="path-effect858"
       is_visible="true"
       lpeversion="1"
       inverse="true"
       flatten="false"
       hide_clip="false"
       message="Use fill-rule evenodd on &lt;b&gt;fill and stroke&lt;/b&gt; dialog if no flatten result after convert clip to paths." />
    <clipPath
       clipPathUnits="userSpaceOnUse"
       id="clipPath854">
      <path
         style="color:#000000;display:none;fill:#ffffff;stroke-width:1;stroke-linecap:square;stroke-linejoin:bevel;-inkscape-stroke:none"
         d="m 174.73828,81.386719 c -0.51408,0.0044 -0.9489,0.116973 -1.40039,0.273437 -0.90298,0.312929 -1.87992,0.837951 -3.07031,1.583985 -2.38079,1.492068 -5.55884,3.887767 -9.59766,7.251953 -8.07764,6.728372 -19.55311,17.313426 -34.27148,31.974606 l -0.01,0.01 -70.189454,71.01953 0.01367,2.4043 8.001953,7.9082 2.404297,-0.0137 70.189444,-71.01953 0.0137,-0.0156 c 14.44391,-14.96939 24.85156,-26.62011 31.45117,-34.80469 3.2998,-4.092284 5.64547,-7.306366 7.09765,-9.708983 0.72609,-1.201309 1.2339,-2.186051 1.53125,-3.09375 0.14868,-0.453849 0.25332,-0.889176 0.24805,-1.404297 -0.005,-0.515121 -0.17001,-1.204678 -0.68945,-1.712891 -0.51944,-0.508212 -1.20857,-0.656779 -1.72266,-0.652343 z m -1.88281,4.324218 c -0.15996,0.297638 -0.18152,0.428822 -0.39453,0.78125 -1.3053,2.159601 -3.58776,5.30814 -6.83399,9.333985 -6.49245,8.051688 -16.85157,19.655878 -31.25,34.578128 l -68.982418,69.79492 -5.582031,-5.51758 68.994139,-69.81055 c 14.66707,-14.60968 26.09427,-25.145963 34.03906,-31.763668 3.97331,-3.309611 7.08575,-5.642698 9.22657,-6.984375 0.35251,-0.220926 0.48558,-0.246027 0.7832,-0.41211 z"
         id="path856" />
      <path
         id="lpe_path-effect858"
         style="color:#000000;fill:#ffffff;stroke-width:1;stroke-linecap:square;stroke-linejoin:bevel;-inkscape-stroke:none"
         class="powerclip"
         d="M 52.40787,78.085584 H 180.45142 V 207.60347 H 52.40787 Z m 122.33041,3.301135 c -0.51408,0.0044 -0.9489,0.116973 -1.40039,0.273437 -0.90298,0.312929 -1.87992,0.837951 -3.07031,1.583985 -2.38079,1.492068 -5.55884,3.887767 -9.59766,7.251953 -8.07764,6.728372 -19.55311,17.313426 -34.27148,31.974606 l -0.01,0.01 -70.189454,71.01953 0.01367,2.4043 8.001953,7.9082 2.404297,-0.0137 70.189444,-71.01953 0.0137,-0.0156 c 14.44391,-14.96939 24.85156,-26.62011 31.45117,-34.80469 3.2998,-4.092284 5.64547,-7.306366 7.09765,-9.708983 0.72609,-1.201309 1.2339,-2.186051 1.53125,-3.09375 0.14868,-0.453849 0.25332,-0.889176 0.24805,-1.404297 -0.005,-0.515121 -0.17001,-1.204678 -0.68945,-1.712891 -0.51944,-0.508212 -1.20857,-0.656779 -1.72266,-0.652343 z m -1.88281,4.324218 c -0.29762,0.166083 -0.43069,0.191184 -0.7832,0.41211 -2.14082,1.341677 -5.25326,3.674764 -9.22657,6.984375 -7.94479,6.617705 -19.37199,17.153988 -34.03906,31.763668 l -68.994139,69.81055 5.582031,5.51758 68.982418,-69.79492 c 14.39843,-14.92225 24.75755,-26.52644 31.25,-34.578128 3.24623,-4.025845 5.52869,-7.174384 6.83399,-9.333985 0.21301,-0.352428 0.23457,-0.483612 0.39453,-0.78125 z" />
    </clipPath>
    <clipPath
       clipPathUnits="userSpaceOnUse"
       id="clipPath876">
      <path
         style="color:#000000;display:none;fill:#ffffff;stroke-width:1;stroke-linecap:square;stroke-linejoin:bevel;-inkscape-stroke:none"
         d="m 174.73828,81.386719 c -0.51408,0.0044 -0.9489,0.116973 -1.40039,0.273437 -0.90298,0.312929 -1.87992,0.837951 -3.07031,1.583985 -2.38079,1.492068 -5.55884,3.887767 -9.59766,7.251953 -8.07764,6.728372 -19.55311,17.313426 -34.27148,31.974606 l -0.01,0.01 -70.189454,71.01953 0.01367,2.4043 8.001953,7.9082 2.404297,-0.0137 70.189444,-71.01953 0.0137,-0.0156 c 14.44391,-14.96939 24.85156,-26.62011 31.45117,-34.80469 3.2998,-4.092284 5.64547,-7.306366 7.09765,-9.708983 0.72609,-1.201309 1.2339,-2.186051 1.53125,-3.09375 0.14868,-0.453849 0.25332,-0.889176 0.24805,-1.404297 -0.005,-0.515121 -0.17001,-1.204678 -0.68945,-1.712891 -0.51944,-0.508212 -1.20857,-0.656779 -1.72266,-0.652343 z m -1.88281,4.324218 c -0.15996,0.297638 -0.18152,0.428822 -0.39453,0.78125 -1.3053,2.159601 -3.58776,5.30814 -6.83399,9.333985 -6.49245,8.051688 -16.85157,19.655878 -31.25,34.578128 l -68.982418,69.79492 -5.582031,-5.51758 68.994139,-69.81055 c 14.66707,-14.60968 26.09427,-25.145963 34.03906,-31.763668 3.97331,-3.309611 7.08575,-5.642698 9.22657,-6.984375 0.35251,-0.220926 0.48558,-0.246027 0.7832,-0.41211 z"
         id="path878" />
    </clipPath>
    <clipPath
       clipPathUnits="userSpaceOnUse"
       id="clipPath909">
      <path
         style="color:#000000;display:block;fill:#ffffff;stroke-width:1;stroke-linecap:square;stroke-linejoin:bevel;-inkscape-stroke:none"
         d="m 174.73828,81.386719 c -0.51408,0.0044 -0.9489,0.116973 -1.40039,0.273437 -0.90298,0.312929 -1.87992,0.837951 -3.07031,1.583985 -2.38079,1.492068 -5.55884,3.887767 -9.59766,7.251953 -8.07764,6.728372 -19.55311,17.313426 -34.27148,31.974606 l -0.01,0.01 -70.189454,71.01953 0.01367,2.4043 8.001953,7.9082 2.404297,-0.0137 70.189444,-71.01953 0.0137,-0.0156 c 14.44391,-14.96939 24.85156,-26.62011 31.45117,-34.80469 3.2998,-4.092284 5.64547,-7.306366 7.09765,-9.708983 0.72609,-1.201309 1.2339,-2.186051 1.53125,-3.09375 0.14868,-0.453849 0.25332,-0.889176 0.24805,-1.404297 -0.005,-0.515121 -0.17001,-1.204678 -0.68945,-1.712891 -0.51944,-0.508212 -1.20857,-0.656779 -1.72266,-0.652343 z m -1.88281,4.324218 c -0.15996,0.297638 -0.18152,0.428822 -0.39453,0.78125 -1.3053,2.159601 -3.58776,5.30814 -6.83399,9.333985 -6.49245,8.051688 -16.85157,19.655878 -31.25,34.578128 l -68.982418,69.79492 -5.582031,-5.51758 68.994139,-69.81055 c 14.66707,-14.60968 26.09427,-25.145963 34.03906,-31.763668 3.97331,-3.309611 7.08575,-5.642698 9.22657,-6.984375 0.35251,-0.220926 0.48558,-0.246027 0.7832,-0.41211 z"
         id="path911" />
    </clipPath>
    <clipPath
       clipPathUnits="userSpaceOnUse"
       id="clipPath1020">
      <path
         style="color:#000000;display:block;fill:#ffffff;stroke-width:1;stroke-linecap:square;stroke-linejoin:bevel;-inkscape-stroke:none"
         d="m 174.73828,81.386719 c -0.51408,0.0044 -0.9489,0.116973 -1.40039,0.273437 -0.90298,0.312929 -1.87992,0.837951 -3.07031,1.583985 -2.38079,1.492068 -5.55884,3.887767 -9.59766,7.251953 -8.07764,6.728372 -19.55311,17.313426 -34.27148,31.974606 l -0.01,0.01 -70.189454,71.01953 0.01367,2.4043 8.001953,7.9082 2.404297,-0.0137 70.189444,-71.01953 0.0137,-0.0156 c 14.44391,-14.96939 24.85156,-26.62011 31.45117,-34.80469 3.2998,-4.092284 5.64547,-7.306366 7.09765,-9.708983 0.72609,-1.201309 1.2339,-2.186051 1.53125,-3.09375 0.14868,-0.453849 0.25332,-0.889176 0.24805,-1.404297 -0.005,-0.515121 -0.17001,-1.204678 -0.68945,-1.712891 -0.51944,-0.508212 -1.20857,-0.656779 -1.72266,-0.652343 z m -1.88281,4.324218 c -0.15996,0.297638 -0.18152,0.428822 -0.39453,0.78125 -1.3053,2.159601 -3.58776,5.30814 -6.83399,9.333985 -6.49245,8.051688 -16.85157,19.655878 -31.25,34.578128 l -68.982418,69.79492 -5.582031,-5.51758 68.994139,-69.81055 c 14.66707,-14.60968 26.09427,-25.145963 34.03906,-31.763668 3.97331,-3.309611 7.08575,-5.642698 9.22657,-6.984375 0.35251,-0.220926 0.48558,-0.246027 0.7832,-0.41211 z"
         id="path1022" />
    </clipPath>
    <clipPath
       clipPathUnits="userSpaceOnUse"
       id="clipPath1044">
      <path
         style="color:#000000;display:block;fill:#ffffff;stroke-width:1;stroke-linecap:square;stroke-linejoin:bevel;-inkscape-stroke:none"
         d="m 174.73828,81.386719 c -0.51408,0.0044 -0.9489,0.116973 -1.40039,0.273437 -0.90298,0.312929 -1.87992,0.837951 -3.07031,1.583985 -2.38079,1.492068 -5.55884,3.887767 -9.59766,7.251953 -8.07764,6.728372 -19.55311,17.313426 -34.27148,31.974606 l -0.01,0.01 -70.189454,71.01953 0.01367,2.4043 8.001953,7.9082 2.404297,-0.0137 70.189444,-71.01953 0.0137,-0.0156 c 14.44391,-14.96939 24.85156,-26.62011 31.45117,-34.80469 3.2998,-4.092284 5.64547,-7.306366 7.09765,-9.708983 0.72609,-1.201309 1.2339,-2.186051 1.53125,-3.09375 0.14868,-0.453849 0.25332,-0.889176 0.24805,-1.404297 -0.005,-0.515121 -0.17001,-1.204678 -0.68945,-1.712891 -0.51944,-0.508212 -1.20857,-0.656779 -1.72266,-0.652343 z m -1.88281,4.324218 c -0.15996,0.297638 -0.18152,0.428822 -0.39453,0.78125 -1.3053,2.159601 -3.58776,5.30814 -6.83399,9.333985 -6.49245,8.051688 -16.85157,19.655878 -31.25,34.578128 l -68.982418,69.79492 -5.582031,-5.51758 68.994139,-69.81055 c 14.66707,-14.60968 26.09427,-25.145963 34.03906,-31.763668 3.97331,-3.309611 7.08575,-5.642698 9.22657,-6.984375 0.35251,-0.220926 0.48558,-0.246027 0.7832,-0.41211 z"
         id="path1046" />
    </clipPath>
    <clipPath
       clipPathUnits="userSpaceOnUse"
       id="clipPath1054">
      <path
         style="color:#000000;display:none;fill:#ffffff;stroke-width:1;stroke-linecap:square;stroke-linejoin:bevel;-inkscape-stroke:none"
         d="m 174.73828,81.386719 c -0.51408,0.0044 -0.9489,0.116973 -1.40039,0.273437 -0.90298,0.312929 -1.87992,0.837951 -3.07031,1.583985 -2.38079,1.492068 -5.55884,3.887767 -9.59766,7.251953 -8.07764,6.728372 -19.55311,17.313426 -34.27148,31.974606 l -0.01,0.01 -70.189454,71.01953 0.01367,2.4043 8.001953,7.9082 2.404297,-0.0137 70.189444,-71.01953 0.0137,-0.0156 c 14.44391,-14.96939 24.85156,-26.62011 31.45117,-34.80469 3.2998,-4.092284 5.64547,-7.306366 7.09765,-9.708983 0.72609,-1.201309 1.2339,-2.186051 1.53125,-3.09375 0.14868,-0.453849 0.25332,-0.889176 0.24805,-1.404297 -0.005,-0.515121 -0.17001,-1.204678 -0.68945,-1.712891 -0.51944,-0.508212 -1.20857,-0.656779 -1.72266,-0.652343 z m -1.88281,4.324218 c -0.15996,0.297638 -0.18152,0.428822 -0.39453,0.78125 -1.3053,2.159601 -3.58776,5.30814 -6.83399,9.333985 -6.49245,8.051688 -16.85157,19.655878 -31.25,34.578128 l -68.982418,69.79492 -5.582031,-5.51758 68.994139,-69.81055 c 14.66707,-14.60968 26.09427,-25.145963 34.03906,-31.763668 3.97331,-3.309611 7.08575,-5.642698 9.22657,-6.984375 0.35251,-0.220926 0.48558,-0.246027 0.7832,-0.41211 z"
         id="path1056" />
    </clipPath>
    <clipPath
       clipPathUnits="userSpaceOnUse"
       id="clipPath1064">
      <path
         style="color:#000000;display:none;fill:#ffffff;stroke-width:1;stroke-linecap:square;stroke-linejoin:bevel;-inkscape-stroke:none"
         d="m 174.73828,81.386719 c -0.51408,0.0044 -0.9489,0.116973 -1.40039,0.273437 -0.90298,0.312929 -1.87992,0.837951 -3.07031,1.583985 -2.38079,1.492068 -5.55884,3.887767 -9.59766,7.251953 -8.07764,6.728372 -19.55311,17.313426 -34.27148,31.974606 l -0.01,0.01 -70.189454,71.01953 0.01367,2.4043 8.001953,7.9082 2.404297,-0.0137 70.189444,-71.01953 0.0137,-0.0156 c 14.44391,-14.96939 24.85156,-26.62011 31.45117,-34.80469 3.2998,-4.092284 5.64547,-7.306366 7.09765,-9.708983 0.72609,-1.201309 1.2339,-2.186051 1.53125,-3.09375 0.14868,-0.453849 0.25332,-0.889176 0.24805,-1.404297 -0.005,-0.515121 -0.17001,-1.204678 -0.68945,-1.712891 -0.51944,-0.508212 -1.20857,-0.656779 -1.72266,-0.652343 z m -1.88281,4.324218 c -0.15996,0.297638 -0.18152,0.428822 -0.39453,0.78125 -1.3053,2.159601 -3.58776,5.30814 -6.83399,9.333985 -6.49245,8.051688 -16.85157,19.655878 -31.25,34.578128 l -68.982418,69.79492 -5.582031,-5.51758 68.994139,-69.81055 c 14.66707,-14.60968 26.09427,-25.145963 34.03906,-31.763668 3.97331,-3.309611 7.08575,-5.642698 9.22657,-6.984375 0.35251,-0.220926 0.48558,-0.246027 0.7832,-0.41211 z"
         id="path1066" />
    </clipPath>
    <clipPath
       clipPathUnits="userSpaceOnUse"
       id="clipPath1076">
      <path
         id="lpe_path-effect1080"
         style="color:#000000;fill:#ffffff;stroke-width:1;stroke-linecap:square;stroke-linejoin:bevel;-inkscape-stroke:none"
         class="powerclip"
         d="m 50.608615,159.51788 h 41.376774 v 41.87686 H 50.608615 Z M 174.73828,81.386719 c -0.51408,0.0044 -0.9489,0.116973 -1.40039,0.273437 -0.90298,0.312929 -1.87992,0.837951 -3.07031,1.583985 -2.38079,1.492068 -5.55884,3.887767 -9.59766,7.251953 -8.07764,6.728372 -19.55311,17.313426 -34.27148,31.974606 l -0.01,0.01 -70.189454,71.01953 0.01367,2.4043 8.001953,7.9082 2.404297,-0.0137 70.189444,-71.01953 0.0137,-0.0156 c 14.44391,-14.96939 24.85156,-26.62011 31.45117,-34.80469 3.2998,-4.092284 5.64547,-7.306366 7.09765,-9.708983 0.72609,-1.201309 1.2339,-2.186051 1.53125,-3.09375 0.14868,-0.453849 0.25332,-0.889176 0.24805,-1.404297 -0.005,-0.515121 -0.17001,-1.204678 -0.68945,-1.712891 -0.51944,-0.508212 -1.20857,-0.656779 -1.72266,-0.652343 z m -1.88281,4.324218 c -0.29762,0.166083 -0.43069,0.191184 -0.7832,0.41211 -2.14082,1.341677 -5.25326,3.674764 -9.22657,6.984375 -7.94479,6.617705 -19.37199,17.153988 -34.03906,31.763668 l -68.994139,69.81055 5.582031,5.51758 68.982418,-69.79492 c 14.39843,-14.92225 24.75755,-26.52644 31.25,-34.578128 3.24623,-4.025845 5.52869,-7.174384 6.83399,-9.333985 0.21301,-0.352428 0.23457,-0.483612 0.39453,-0.78125 z" />
    </clipPath>
    <clipPath
       clipPathUnits="userSpaceOnUse"
       id="clipPath1084">
      <path
         id="lpe_path-effect1088"
         style="color:#000000;fill:#ffffff;stroke-width:1;stroke-linecap:square;stroke-linejoin:bevel;-inkscape-stroke:none"
         class="powerclip"
         d="M 58.710107,163.72203 H 102.06716 V 209.4082 H 58.710107 Z M 174.73828,81.386719 c -0.51408,0.0044 -0.9489,0.116973 -1.40039,0.273437 -0.90298,0.312929 -1.87992,0.837951 -3.07031,1.583985 -2.38079,1.492068 -5.55884,3.887767 -9.59766,7.251953 -8.07764,6.728372 -19.55311,17.313426 -34.27148,31.974606 l -0.01,0.01 -70.189454,71.01953 0.01367,2.4043 8.001953,7.9082 2.404297,-0.0137 70.189444,-71.01953 0.0137,-0.0156 c 14.44391,-14.96939 24.85156,-26.62011 31.45117,-34.80469 3.2998,-4.092284 5.64547,-7.306366 7.09765,-9.708983 0.72609,-1.201309 1.2339,-2.186051 1.53125,-3.09375 0.14868,-0.453849 0.25332,-0.889176 0.24805,-1.404297 -0.005,-0.515121 -0.17001,-1.204678 -0.68945,-1.712891 -0.51944,-0.508212 -1.20857,-0.656779 -1.72266,-0.652343 z m -1.88281,4.324218 c -0.29762,0.166083 -0.43069,0.191184 -0.7832,0.41211 -2.14082,1.341677 -5.25326,3.674764 -9.22657,6.984375 -7.94479,6.617705 -19.37199,17.153988 -34.03906,31.763668 l -68.994139,69.81055 5.582031,5.51758 68.982418,-69.79492 c 14.39843,-14.92225 24.75755,-26.52644 31.25,-34.578128 3.24623,-4.025845 5.52869,-7.174384 6.83399,-9.333985 0.21301,-0.352428 0.23457,-0.483612 0.39453,-0.78125 z" />
    </clipPath>
    <clipPath
       clipPathUnits="userSpaceOnUse"
       id="clipPath1289">
      <path
         style="color:#000000;display:none;fill:#ffffff;stroke-width:1;stroke-linecap:round;stroke-linejoin:bevel;-inkscape-stroke:none"
         d="m 85.367187,164.51758 -17.212889,4.30273 -0.791017,0.44727 -11.257812,11.25781 -0.496094,1.21484 0.09961,12.95899 v 0.01 a 1.699605,1.699605 0 0 0 0.0078,0.006 1.699605,1.699605 0 0 0 0.492187,1.18555 1.699605,1.699605 0 0 0 0.708985,-0.002 1.699605,1.699605 0 0 0 0.503906,0.49609 1.699605,1.699605 0 0 0 1.109375,-0.5 1.699605,1.699605 0 0 0 0.08203,0 l 28.373047,-28.52919 z m -5.095703,4.77929 -21.195312,21.31055 -0.0625,-8.18164 10.421876,-10.42187 z"
         id="path1291" />
    </clipPath>
    <clipPath
       clipPathUnits="userSpaceOnUse"
       id="clipPath1299">
      <path
         style="color:#000000;display:none;fill:#ffffff;stroke-width:1;stroke-linecap:round;stroke-linejoin:bevel;-inkscape-stroke:none"
         d="m 85.367187,164.51758 -17.212889,4.30273 -0.791017,0.44727 -11.257812,11.25781 -0.496094,1.21484 0.09961,12.95899 v 0.01 a 1.699605,1.699605 0 0 0 0.0078,0.006 1.699605,1.699605 0 0 0 0.492187,1.18555 1.699605,1.699605 0 0 0 0.708985,-0.002 1.699605,1.699605 0 0 0 0.503906,0.49609 1.699605,1.699605 0 0 0 1.109375,-0.5 1.699605,1.699605 0 0 0 0.08203,0 l 28.373047,-28.52919 z m -5.095703,4.77929 -21.195312,21.31055 -0.0625,-8.18164 10.421876,-10.42187 z"
         id="path1301" />
    </clipPath>
    <clipPath
       clipPathUnits="userSpaceOnUse"
       id="clipPath1317">
      <path
         style="color:#000000;display:none;fill:#ffffff;stroke-width:1;stroke-linecap:square;stroke-linejoin:bevel;-inkscape-stroke:none"
         d="m 174.73828,81.386719 c -0.51408,0.0044 -0.9489,0.116973 -1.40039,0.273437 -0.90298,0.312929 -1.87992,0.837951 -3.07031,1.583985 -2.38079,1.492068 -5.55884,3.887767 -9.59766,7.251953 -8.07764,6.728372 -19.55311,17.313426 -34.27148,31.974606 l -0.01,0.01 -70.189454,71.01953 0.01367,2.4043 8.001953,7.9082 2.404297,-0.0137 70.189444,-71.01953 0.0137,-0.0156 c 14.44391,-14.96939 24.85156,-26.62011 31.45117,-34.80469 3.2998,-4.092284 5.64547,-7.306366 7.09765,-9.708983 0.72609,-1.201309 1.2339,-2.186051 1.53125,-3.09375 0.14868,-0.453849 0.25332,-0.889176 0.24805,-1.404297 -0.005,-0.515121 -0.17001,-1.204678 -0.68945,-1.712891 -0.51944,-0.508212 -1.20857,-0.656779 -1.72266,-0.652343 z m -1.88281,4.324218 c -0.15996,0.297638 -0.18152,0.428822 -0.39453,0.78125 -1.3053,2.159601 -3.58776,5.30814 -6.83399,9.333985 -6.49245,8.051688 -16.85157,19.655878 -31.25,34.578128 l -68.982418,69.79492 -5.582031,-5.51758 68.994139,-69.81055 c 14.66707,-14.60968 26.09427,-25.145963 34.03906,-31.763668 3.97331,-3.309611 7.08575,-5.642698 9.22657,-6.984375 0.35251,-0.220926 0.48558,-0.246027 0.7832,-0.41211 z"
         id="path1319" />
    </clipPath>
    <clipPath
       clipPathUnits="userSpaceOnUse"
       id="clipPath1432">
      <path
         style="color:#000000;display:none;fill:#ffffff;stroke-width:1;stroke-linecap:round;stroke-linejoin:bevel;-inkscape-stroke:none"
         d="m 85.367187,164.51758 -17.212889,4.30273 -0.791017,0.44727 -11.257812,11.25781 -0.496094,1.21484 0.09961,12.95899 v 0.01 a 1.699605,1.699605 0 0 0 0.0078,0.006 1.699605,1.699605 0 0 0 0.492187,1.18555 1.699605,1.699605 0 0 0 0.708985,-0.002 1.699605,1.699605 0 0 0 0.503906,0.49609 1.699605,1.699605 0 0 0 1.109375,-0.5 1.699605,1.699605 0 0 0 0.08203,0 l 28.373047,-28.52919 z m -5.095703,4.77929 -21.195312,21.31055 -0.0625,-8.18164 10.421876,-10.42187 z"
         id="path1434" />
    </clipPath>
    <clipPath
       clipPathUnits="userSpaceOnUse"
       id="clipPath1442">
      <path
         style="color:#000000;display:none;fill:#ffffff;stroke-width:1;stroke-linecap:round;stroke-linejoin:bevel;-inkscape-stroke:none"
         d="m 85.367187,164.51758 -17.212889,4.30273 -0.791017,0.44727 -11.257812,11.25781 -0.496094,1.21484 0.09961,12.95899 v 0.01 a 1.699605,1.699605 0 0 0 0.0078,0.006 1.699605,1.699605 0 0 0 0.492187,1.18555 1.699605,1.699605 0 0 0 0.708985,-0.002 1.699605,1.699605 0 0 0 0.503906,0.49609 1.699605,1.699605 0 0 0 1.109375,-0.5 1.699605,1.699605 0 0 0 0.08203,0 l 28.373047,-28.52919 z m -5.095703,4.77929 -21.195312,21.31055 -0.0625,-8.18164 10.421876,-10.42187 z"
         id="path1444" />
      <path
         id="lpe_path-effect1446"
         style="color:#000000;fill:#ffffff;stroke-width:1;stroke-linecap:round;stroke-linejoin:bevel;-inkscape-stroke:none"
         class="powerclip"
         d="m 52.30817,161.16675 h 38.472127 v 38.52839 H 52.30817 Z m 33.059017,3.35083 -17.212889,4.30273 -0.791017,0.44727 -11.257812,11.25781 -0.496094,1.21484 0.09961,12.95899 v 0.01 a 1.699605,1.699605 0 0 0 0.0078,0.006 1.699605,1.699605 0 0 0 0.492187,1.18555 1.699605,1.699605 0 0 0 0.708985,-0.002 1.699605,1.699605 0 0 0 0.503906,0.49609 1.699605,1.699605 0 0 0 1.109375,-0.5 1.699605,1.699605 0 0 0 0.08203,0 l 28.373047,-28.52919 z m -5.095703,4.77929 -10.835936,2.70704 -10.421876,10.42187 0.0625,8.18164 z" />
    </clipPath>
    <clipPath
       clipPathUnits="userSpaceOnUse"
       id="clipPath1787">
      <path
         style="color:#000000;display:block;fill:#ffffff;stroke-width:1;stroke-linecap:round;-inkscape-stroke:none"
         d="m 97.066406,168.72266 -32.849608,32.66992 -0.0059,0.006 a 1.699605,1.699605 0 0 0 -0.22461,0.54101 1.699605,1.699605 0 0 0 -0.275391,0.65039 1.699605,1.699605 0 0 0 0.0021,0.002 1.699605,1.699605 0 0 0 0.492189,1.21093 1.699605,1.699605 0 0 0 0.701172,0.002 1.699605,1.699605 0 0 0 0.490233,0.49804 l 13.679689,0.10547 12.09375,-12.09375 z m -6.257811,11.01757 -2.708987,10.83594 -10.421874,10.42188 -8.181639,-0.0625 z"
         id="path1789" />
    </clipPath>
    <clipPath
       clipPathUnits="userSpaceOnUse"
       id="clipPath1797">
      <path
         style="color:#000000;display:none;fill:#ffffff;stroke-width:1;stroke-linecap:round;-inkscape-stroke:none"
         d="m 97.066406,168.72266 -32.849608,32.66992 -0.0059,0.006 a 1.699605,1.699605 0 0 0 -0.22461,0.54101 1.699605,1.699605 0 0 0 -0.275391,0.65039 1.699605,1.699605 0 0 0 0.0021,0.002 1.699605,1.699605 0 0 0 0.492189,1.21093 1.699605,1.699605 0 0 0 0.701172,0.002 1.699605,1.699605 0 0 0 0.490233,0.49804 l 13.679689,0.10547 12.09375,-12.09375 z m -6.257811,11.01757 -2.708987,10.83594 -10.421874,10.42188 -8.181639,-0.0625 z"
         id="path1799" />
      <path
         id="lpe_path-effect1801"
         style="color:#000000;fill:#ffffff;stroke-width:1;stroke-linecap:round;-inkscape-stroke:none"
         class="powerclip"
         d="m 60.409712,169.23103 h 38.52839 v 38.47214 h -38.52839 z m 36.656694,-0.50837 -32.849608,32.66992 -0.0059,0.006 a 1.699605,1.699605 0 0 0 -0.22461,0.54101 1.699605,1.699605 0 0 0 -0.275391,0.65039 1.699605,1.699605 0 0 0 0.0021,0.002 1.699605,1.699605 0 0 0 0.492189,1.21093 1.699605,1.699605 0 0 0 0.701172,0.002 1.699605,1.699605 0 0 0 0.490233,0.49804 l 13.679689,0.10547 12.09375,-12.09375 z m -6.257811,11.01757 -21.3125,21.19532 8.181639,0.0625 10.421874,-10.42188 z" />
    </clipPath>
    <clipPath
       clipPathUnits="userSpaceOnUse"
       id="clipPath1956">
      <path
         style="display:none;fill:none;stroke:#000000;stroke-width:3.4;stroke-linecap:butt;stroke-linejoin:miter;stroke-miterlimit:4;stroke-dasharray:none;stroke-opacity:1"
         d="m 66.61891,203.79903 -9.21104,-9.10389 -0.0997,-12.96735 11.257745,-11.25774"
         id="path1958" />
    </clipPath>
    <clipPath
       clipPathUnits="userSpaceOnUse"
       id="clipPath3249">
      <path
         style="color:#000000;display:block;fill:#000000;stroke-width:1;-inkscape-stroke:none"
         d="m 67.363281,169.26758 -11.759765,11.76172 0.109375,14.38086 8.501954,8.40234 2.390624,-2.41797 -7.503907,-7.41406 -0.08789,-11.55469 10.753907,-10.75391 z"
         id="path3251" />
    </clipPath>
    <clipPath
       clipPathUnits="userSpaceOnUse"
       id="clipPath1029">
      <rect
         style="display:block;fill:#ffcc00;stroke:none;stroke-width:2.38808;stroke-linecap:square"
         id="rect1031"
         width="16.933332"
         height="26.987499"
         x="61.7104"
         y="131.33029" />
    </clipPath>
  </defs>
  <g
     inkscape:label="Layer 1"
     inkscape:groupmode="layer"
     id="layer1"
     transform="translate(-33.198315,-67.824516)">
    <g
       id="path4120-3"
       clip-path="url(#clipPath1442)"
       transform="matrix(1.8460308,-0.49942863,0.49942863,1.8460308,-146.45489,-121.51165)"
       style="fill:#000000;fill-opacity:1"
       inkscape:path-effect="#path-effect1446">
      <path
         style="color:#000000;fill:#000000;fill-opacity:1;stroke-width:3.39921;stroke-linecap:round;stroke-linejoin:bevel"
         d="m 57.40787,194.69514 -0.0997,-12.96735 11.257745,-11.25774 17.214382,-4.3033 -28.372431,28.52839"
         id="path1202"
         inkscape:original-d="m 57.40787,194.69514 -0.0997,-12.96735 11.257745,-11.25774 17.214382,-4.3033 -28.372431,28.52839" />
    </g>
    <g
       id="path3109"
       clip-path="url(#clipPath854)"
       transform="matrix(1.2386031,0.01664859,-0.01664859,1.2386031,-24.039638,-100.56487)"
       style="fill:#000000;fill-opacity:1"
       inkscape:path-effect="#path-effect858" />
    <g
       id="path4120-3-7"
       clip-path="url(#clipPath1797)"
       transform="matrix(1.7743784,-0.48004365,0.48004365,1.7743784,-132.3796,-104.84789)"
       style="fill:#000000;fill-opacity:1"
       inkscape:path-effect="#path-effect1801">
      <path
         style="color:#000000;fill:#000000;fill-opacity:1;stroke-width:3.39921;stroke-linecap:round;-inkscape-stroke:none"
         d="m 65.409712,202.60347 12.967347,0.0997 11.257744,-11.25776 4.303299,-17.21438 -28.52839,28.37244"
         id="path1700"
         inkscape:original-d="m 65.409712,202.60347 12.967347,0.0997 11.257744,-11.25776 4.303299,-17.21438 -28.52839,28.37244" />
    </g>
    <path
       style="fill:#000000;stroke:#000000;stroke-width:1.69722;stroke-linecap:round;stroke-linejoin:round;stroke-dasharray:none;stroke-opacity:1;paint-order:markers stroke fill"
       d="M 63.205075,204.33369 109.1816,124.78111 c 23.49435,-35.587754 28.44191,-40.92077 43.42954,-54.229458 -3.75809,21.685841 -5.45883,26.932112 -26.01828,65.287368 l -45.436576,78.88542 z"
       id="path9313"
       sodipodi:nodetypes="cccccc" />
  </g>
</svg>
